<svg xmlns="http://www.w3.org/2000/svg" width="854" height="214" viewBox="0 0 854 214" font-family="ui-monospace, SFMono-Regular, 'SF Mono', Consolas, 'Liberation Mono', Menlo, monospace">
  <rect x="9.5" y="9.5" width="843" height="203" fill="#196c2e"/>
  <rect x="1.5" y="1.5" width="843" height="203" fill="#161b22" stroke="#c9d1d9" stroke-width="3"/>
  <rect x="30" y="40" width="12" height="12" fill="#c9d1d9"/>
  <text x="54" y="51" font-size="14" font-weight="700" letter-spacing="0.5" fill="#c9d1d9">MORNING</text>
  <text x="170" y="51" font-size="12" fill="#6e7681">06-12</text>
  <text x="380" y="51" text-anchor="end" font-size="12" fill="#c9d1d9">83 COMMITS</text>
  <rect x="402" y="39" width="300" height="14" fill="#30363d" stroke="#c9d1d9" stroke-width="1.5"/>
  <rect x="402" y="39" width="48.5" height="14" fill="#39d353"/>
  <text x="806" y="51" text-anchor="end" font-size="14" font-weight="700" fill="#39d353">16.2%</text>
  <rect x="30" y="78" width="12" height="12" fill="#c9d1d9"/>
  <text x="54" y="89" font-size="14" font-weight="700" letter-spacing="0.5" fill="#c9d1d9">DAYTIME</text>
  <text x="170" y="89" font-size="12" fill="#6e7681">12-18</text>
  <text x="380" y="89" text-anchor="end" font-size="12" fill="#c9d1d9">216 COMMITS</text>
  <rect x="402" y="77" width="300" height="14" fill="#30363d" stroke="#c9d1d9" stroke-width="1.5"/>
  <rect x="402" y="77" width="126.3" height="14" fill="#39d353"/>
  <text x="806" y="89" text-anchor="end" font-size="14" font-weight="700" fill="#39d353">42.1%</text>
  <rect x="30" y="116" width="12" height="12" fill="#c9d1d9"/>
  <text x="54" y="127" font-size="14" font-weight="700" letter-spacing="0.5" fill="#c9d1d9">EVENING</text>
  <text x="170" y="127" font-size="12" fill="#6e7681">18-24</text>
  <text x="380" y="127" text-anchor="end" font-size="12" fill="#c9d1d9">106 COMMITS</text>
  <rect x="402" y="115" width="300" height="14" fill="#30363d" stroke="#c9d1d9" stroke-width="1.5"/>
  <rect x="402" y="115" width="62.0" height="14" fill="#39d353"/>
  <text x="806" y="127" text-anchor="end" font-size="14" font-weight="700" fill="#39d353">20.7%</text>
  <rect x="30" y="154" width="12" height="12" fill="#c9d1d9"/>
  <text x="54" y="165" font-size="14" font-weight="700" letter-spacing="0.5" fill="#c9d1d9">NIGHT</text>
  <text x="170" y="165" font-size="12" fill="#6e7681">00-06</text>
  <text x="380" y="165" text-anchor="end" font-size="12" fill="#c9d1d9">108 COMMITS</text>
  <rect x="402" y="153" width="300" height="14" fill="#30363d" stroke="#c9d1d9" stroke-width="1.5"/>
  <rect x="402" y="153" width="63.2" height="14" fill="#39d353"/>
  <text x="806" y="165" text-anchor="end" font-size="14" font-weight="700" fill="#39d353">21.1%</text>
</svg>