<svg xmlns="http://www.w3.org/2000/svg" width="854" height="304" viewBox="0 0 854 304" font-family="ui-monospace, SFMono-Regular, 'SF Mono', Consolas, 'Liberation Mono', Menlo, monospace">
  <rect x="9.5" y="9.5" width="843" height="293" fill="#196c2e"/>
  <rect x="1.5" y="1.5" width="843" height="293" fill="#161b22" stroke="#c9d1d9" stroke-width="3"/>
  <line x1="170" y1="8" x2="170" y2="288" stroke="#c9d1d9" stroke-width="2"/>
  <text x="22" y="42.0" font-size="12.5" font-weight="700" letter-spacing="0.5" fill="#c9d1d9">LANGUAGE</text>
  <rect x="186.0" y="27.0" width="93.0" height="22" fill="#21262d" stroke="#444c56" stroke-width="1.5"/>
  <text x="232.5" y="42.0" text-anchor="middle" font-size="12.5" font-weight="700" fill="#c9d1d9">JavaScript</text>
  <rect x="286.0" y="27.0" width="48.0" height="22" fill="#21262d" stroke="#444c56" stroke-width="1.5"/>
  <text x="310.0" y="42.0" text-anchor="middle" font-size="12.5" font-weight="700" fill="#c9d1d9">Dart</text>
  <rect x="341.0" y="27.0" width="33.0" height="22" fill="#21262d" stroke="#444c56" stroke-width="1.5"/>
  <text x="357.5" y="42.0" text-anchor="middle" font-size="12.5" font-weight="700" fill="#c9d1d9">C#</text>
  <rect x="381.0" y="27.0" width="48.0" height="22" fill="#21262d" stroke="#444c56" stroke-width="1.5"/>
  <text x="405.0" y="42.0" text-anchor="middle" font-size="12.5" font-weight="700" fill="#c9d1d9">Java</text>
  <rect x="436.0" y="27.0" width="63.0" height="22" fill="#21262d" stroke="#444c56" stroke-width="1.5"/>
  <text x="467.5" y="42.0" text-anchor="middle" font-size="12.5" font-weight="700" fill="#c9d1d9">Kotlin</text>
  <rect x="506.0" y="27.0" width="63.0" height="22" fill="#21262d" stroke="#444c56" stroke-width="1.5"/>
  <text x="537.5" y="42.0" text-anchor="middle" font-size="12.5" font-weight="700" fill="#c9d1d9">Python</text>
  <rect x="576.0" y="27.0" width="63.0" height="22" fill="#21262d" stroke="#444c56" stroke-width="1.5"/>
  <text x="607.5" y="42.0" text-anchor="middle" font-size="12.5" font-weight="700" fill="#c9d1d9">Delphi</text>
  <line x1="8" y1="60" x2="838" y2="60" stroke="#c9d1d9" stroke-width="1.5"/>
  <text x="22" y="86.0" font-size="12.5" font-weight="700" letter-spacing="0.5" fill="#c9d1d9">BACKEND</text>
  <rect x="186.0" y="71.0" width="70.5" height="22" fill="#21262d" stroke="#444c56" stroke-width="1.5"/>
  <text x="221.3" y="86.0" text-anchor="middle" font-size="12.5" font-weight="700" fill="#c9d1d9">Node.js</text>
  <rect x="263.5" y="71.0" width="100.5" height="22" fill="#21262d" stroke="#444c56" stroke-width="1.5"/>
  <text x="313.8" y="86.0" text-anchor="middle" font-size="12.5" font-weight="700" fill="#c9d1d9">Spring Boot</text>
  <rect x="371.0" y="71.0" width="48.0" height="22" fill="#21262d" stroke="#444c56" stroke-width="1.5"/>
  <text x="395.0" y="86.0" text-anchor="middle" font-size="12.5" font-weight="700" fill="#c9d1d9">.NET</text>
  <rect x="426.0" y="71.0" width="70.5" height="22" fill="#21262d" stroke="#444c56" stroke-width="1.5"/>
  <text x="461.3" y="86.0" text-anchor="middle" font-size="12.5" font-weight="700" fill="#c9d1d9">ASP.NET</text>
  <rect x="503.5" y="71.0" width="40.5" height="22" fill="#21262d" stroke="#444c56" stroke-width="1.5"/>
  <text x="523.8" y="86.0" text-anchor="middle" font-size="12.5" font-weight="700" fill="#c9d1d9">JSP</text>
  <line x1="8" y1="104" x2="838" y2="104" stroke="#c9d1d9" stroke-width="1.5"/>
  <text x="22" y="130.0" font-size="12.5" font-weight="700" letter-spacing="0.5" fill="#c9d1d9">FRONTEND &amp; MOBILE</text>
  <rect x="186.0" y="115.0" width="70.5" height="22" fill="#21262d" stroke="#444c56" stroke-width="1.5"/>
  <text x="221.3" y="130.0" text-anchor="middle" font-size="12.5" font-weight="700" fill="#c9d1d9">Next.js</text>
  <rect x="263.5" y="115.0" width="55.5" height="22" fill="#21262d" stroke="#444c56" stroke-width="1.5"/>
  <text x="291.3" y="130.0" text-anchor="middle" font-size="12.5" font-weight="700" fill="#c9d1d9">React</text>
  <rect x="326.0" y="115.0" width="70.5" height="22" fill="#21262d" stroke="#444c56" stroke-width="1.5"/>
  <text x="361.3" y="130.0" text-anchor="middle" font-size="12.5" font-weight="700" fill="#c9d1d9">Angular</text>
  <rect x="403.5" y="115.0" width="70.5" height="22" fill="#21262d" stroke="#444c56" stroke-width="1.5"/>
  <text x="438.8" y="130.0" text-anchor="middle" font-size="12.5" font-weight="700" fill="#c9d1d9">Flutter</text>
  <rect x="481.0" y="115.0" width="70.5" height="22" fill="#21262d" stroke="#444c56" stroke-width="1.5"/>
  <text x="516.3" y="130.0" text-anchor="middle" font-size="12.5" font-weight="700" fill="#c9d1d9">Android</text>
  <line x1="8" y1="148" x2="838" y2="148" stroke="#c9d1d9" stroke-width="1.5"/>
  <text x="22" y="174.0" font-size="12.5" font-weight="700" letter-spacing="0.5" fill="#c9d1d9">DATA &amp; DOMAIN</text>
  <rect x="186.0" y="159.0" width="93.0" height="22" fill="#21262d" stroke="#444c56" stroke-width="1.5"/>
  <text x="232.5" y="174.0" text-anchor="middle" font-size="12.5" font-weight="700" fill="#c9d1d9">PostgreSQL</text>
  <rect x="286.0" y="159.0" width="55.5" height="22" fill="#21262d" stroke="#444c56" stroke-width="1.5"/>
  <text x="313.8" y="174.0" text-anchor="middle" font-size="12.5" font-weight="700" fill="#c9d1d9">MySQL</text>
  <rect x="348.5" y="159.0" width="63.0" height="22" fill="#21262d" stroke="#444c56" stroke-width="1.5"/>
  <text x="380.0" y="174.0" text-anchor="middle" font-size="12.5" font-weight="700" fill="#c9d1d9">Oracle</text>
  <rect x="418.5" y="159.0" width="48.0" height="22" fill="#21262d" stroke="#444c56" stroke-width="1.5"/>
  <text x="442.5" y="174.0" text-anchor="middle" font-size="12.5" font-weight="700" fill="#c9d1d9">OCPP</text>
  <line x1="8" y1="192" x2="838" y2="192" stroke="#c9d1d9" stroke-width="1.5"/>
  <text x="22" y="218.0" font-size="12.5" font-weight="700" letter-spacing="0.5" fill="#c9d1d9">INFRA &amp; CI/CD</text>
  <rect x="186.0" y="203.0" width="40.5" height="22" fill="#21262d" stroke="#444c56" stroke-width="1.5"/>
  <text x="206.3" y="218.0" text-anchor="middle" font-size="12.5" font-weight="700" fill="#c9d1d9">AWS</text>
  <rect x="233.5" y="203.0" width="40.5" height="22" fill="#21262d" stroke="#444c56" stroke-width="1.5"/>
  <text x="253.8" y="218.0" text-anchor="middle" font-size="12.5" font-weight="700" fill="#c9d1d9">IIS</text>
  <rect x="281.0" y="203.0" width="63.0" height="22" fill="#21262d" stroke="#444c56" stroke-width="1.5"/>
  <text x="312.5" y="218.0" text-anchor="middle" font-size="12.5" font-weight="700" fill="#c9d1d9">Vercel</text>
  <rect x="351.0" y="203.0" width="78.0" height="22" fill="#21262d" stroke="#444c56" stroke-width="1.5"/>
  <text x="390.0" y="218.0" text-anchor="middle" font-size="12.5" font-weight="700" fill="#c9d1d9">Supabase</text>
  <rect x="436.0" y="203.0" width="70.5" height="22" fill="#21262d" stroke="#444c56" stroke-width="1.5"/>
  <text x="471.3" y="218.0" text-anchor="middle" font-size="12.5" font-weight="700" fill="#c9d1d9">Jenkins</text>
  <rect x="513.5" y="203.0" width="108.0" height="22" fill="#21262d" stroke="#444c56" stroke-width="1.5"/>
  <text x="567.5" y="218.0" text-anchor="middle" font-size="12.5" font-weight="700" fill="#c9d1d9">Git Worktree</text>
  <rect x="628.5" y="203.0" width="48.0" height="22" fill="#21262d" stroke="#444c56" stroke-width="1.5"/>
  <text x="652.5" y="218.0" text-anchor="middle" font-size="12.5" font-weight="700" fill="#c9d1d9">Vite</text>
  <line x1="8" y1="236" x2="838" y2="236" stroke="#c9d1d9" stroke-width="1.5"/>
  <text x="22" y="262.0" font-size="12.5" font-weight="700" letter-spacing="0.5" fill="#c9d1d9">AI ENGINEERING</text>
  <rect x="186.0" y="247.0" width="100.5" height="22" fill="#21262d" stroke="#444c56" stroke-width="1.5"/>
  <text x="236.3" y="262.0" text-anchor="middle" font-size="12.5" font-weight="700" fill="#c9d1d9">Claude Code</text>
  <rect x="293.5" y="247.0" width="190.5" height="22" fill="#21262d" stroke="#444c56" stroke-width="1.5"/>
  <text x="388.8" y="262.0" text-anchor="middle" font-size="12.5" font-weight="700" fill="#c9d1d9">Spec-Driven Development</text>
</svg>